<svg id="Capa_1" data-name="Capa 1" xmlns="http://www.w3.org/2000/svg" viewBox="0 0 997.54 997.54"><defs><style>.cls-1{fill:none;stroke:#1d1d1b;stroke-miterlimit:10;stroke-width:21px;}.cls-2{fill:#1d1d1b;}</style></defs><circle class="cls-1" cx="498.77" cy="498.77" r="488.27"/><path class="cls-2" d="M271.32,158.35V352.54c0,35,14.63,66.66,69.07,66.66,55.49,0,69.59-26.41,69.59-67.05V158.35h24.48V352.56c0,50.17-23.6,83.24-95.16,83.24-67.79,0-93-31.06-93-80.49v-197Z" transform="translate(-1.23 -1.23)"/><path class="cls-2" d="M563.83,431.77V158.35h34.3C717.62,371.78,731.87,395.58,736.78,406.47h.55q-3.32-58.8-3.28-125.11v-123H758.9V431.77H726.27c-124.37-222.68-137-245.3-140.84-255h-.55c2.74,34.51,3.27,82.13,3.27,131.5v123.5Z" transform="translate(-1.23 -1.23)"/><path class="cls-2" d="M249.6,565.35h73.86c79.73,0,119.09,43.4,119.09,128.54,0,93.12-34.51,144.88-125.63,144.88H249.6Zm24.48,256.84h40.69C393,822.19,417,775.61,417,695.46c0-78.74-31.41-113.52-101.66-113.52H274.08Z" transform="translate(-1.23 -1.23)"/><path class="cls-2" d="M584.46,707V838.77H560V565.35h86.54c59.3,0,88.52,26.09,88.52,68,0,41.71-26.33,59.36-50.85,65,38.11,8.47,47,33.6,47,70.61v10.85c0,21.88.58,44.13,5.47,59H711.16c-4.94-12.45-5-38.45-5-59.78v-8.86c0-40.46-10.43-63.12-66-63.12Zm0-16.57h58c48.53,0,66.55-22.66,66.55-57,0-30-18.54-51.48-64.27-51.48H584.46Z" transform="translate(-1.23 -1.23)"/></svg>